<svg width="29" height="28" viewBox="0 0 29 28" fill="none" xmlns="http://www.w3.org/2000/svg">
<g clip-path="url(#clip0_1_17)">
<path d="M25.8113 9.13347C27.5219 9.6219 28.285 11.0272 28.285 12.1289C28.285 12.3796 28.2796 12.4505 28.2736 12.565L28.2632 12.7471C28.237 13.3925 28.0119 14.0902 27.5186 14.6452C27.8489 15.259 27.9754 15.997 27.8576 16.7139C27.6685 17.8712 27.2193 18.6289 26.6922 19.126C26.9211 19.6853 27.0193 20.4659 26.6905 21.5049C26.4943 22.1378 26.1929 23.1114 25.2558 23.7552C25.4041 24.327 25.3588 24.8912 25.2356 25.2902C25.0721 25.8195 24.8715 26.2109 24.8628 26.2283C24.2392 27.3507 23.1914 27.91 21.7382 27.91H16.97C14.5453 27.91 12.2046 27.4113 11.7614 27.3099C9.69434 26.8345 8.7273 26.6034 8.2247 26.4786C8.20835 26.4742 8.20017 26.4726 8.18436 26.4682C8.10151 26.4464 8.03391 26.43 7.97613 26.4142C7.96414 26.4126 7.9456 26.4071 7.93525 26.4039C7.51496 27.2831 6.64604 27.91 5.60814 27.91H2.99158C1.5492 27.91 0.375015 26.7359 0.375015 25.2935V11.3385C0.375015 9.89609 1.5492 8.72191 2.99158 8.72191H5.60814C6.25956 8.72191 6.89462 9.02445 7.35252 9.41966L7.30618 9.38041C7.39612 9.34116 8.00993 9.03862 8.2247 8.92524C11.1509 7.38637 11.6944 4.35334 11.7135 2.59643C11.732 1.1644 12.9056 3.43323e-05 14.33 3.43323e-05C16.3464 3.43323e-05 18.6266 2.75615 18.6266 5.88566C18.6266 7.19558 18.5852 7.93367 18.4086 8.75135C22.1579 8.8511 24.721 8.84729 25.8113 9.13347ZM6.48033 25.2935V11.3385C6.48033 10.856 6.09057 10.4663 5.60814 10.4663H2.99158C2.50915 10.4663 2.11939 10.856 2.11939 11.3385V25.2935C2.11939 25.7759 2.50915 26.1657 2.99158 26.1657H5.60814C6.09057 26.1657 6.48033 25.7759 6.48033 25.2935ZM26.5205 12.6773C26.5319 12.384 26.5406 12.4276 26.5406 12.1289C26.5406 11.8563 26.4589 11.0665 25.5044 10.7934C24.7352 10.5917 24.7963 10.4663 16.0744 10.4663C16.7983 8.31089 16.8823 7.95329 16.8823 5.88566C16.8823 3.59508 15.2518 1.74441 14.33 1.74441C13.7849 1.74441 13.4633 2.19904 13.4578 2.6166C13.4218 5.58749 12.209 9.20488 8.2247 10.8555C8.17237 10.8773 8.09933 10.8997 8.04481 10.9209C7.61308 11.0506 7.35252 11.4202 7.35252 11.8296L7.35851 23.8762C7.35851 24.52 8.0966 24.6448 8.0966 24.6448C8.32391 24.7091 8.51525 24.7734 12.1381 25.6085C12.1992 25.6222 14.5753 26.1657 16.97 26.1657H21.7382C22.6376 26.1657 23.0622 25.8795 23.3255 25.4041C23.331 25.3921 23.4602 25.1294 23.5692 24.7756C23.6684 24.4518 23.6243 23.5491 22.6698 23.5491H21.3021C21.0606 23.5491 20.866 23.3529 20.866 23.113C20.866 22.8715 21.0606 22.6769 21.3021 22.6769H22.7248C24.5799 22.6769 24.7499 21.8603 25.0285 20.9805C25.2394 20.3106 25.3692 19.1882 23.8968 19.1882H22.1797C21.9382 19.1882 21.7436 18.9919 21.7436 18.7521C21.7436 18.5106 21.9382 18.316 22.1797 18.316H24.2511C25.7241 18.316 26.0293 17.0862 26.1378 16.4353C26.2223 15.912 26.0506 14.8272 24.7423 14.8272H23.0519C22.8104 14.8272 22.6158 14.6321 22.6158 14.3911C22.6158 14.1502 22.8104 13.955 23.0519 13.955H24.7963C26.3226 13.955 26.503 13.1079 26.5205 12.6773ZM4.29986 22.6769C5.02214 22.6769 5.60814 23.2629 5.60814 23.9852C5.60814 24.7075 5.02214 25.2935 4.29986 25.2935C3.57758 25.2935 2.99158 24.7075 2.99158 23.9852C2.99158 23.2629 3.57758 22.6769 4.29986 22.6769ZM4.29986 24.4213C4.53971 24.4213 4.73595 24.225 4.73595 23.9852C4.73595 23.7453 4.53971 23.5491 4.29986 23.5491C4.06001 23.5491 3.86377 23.7453 3.86377 23.9852C3.86377 24.225 4.06001 24.4213 4.29986 24.4213Z" fill="#4CAF50"/>
</g>
<defs>
<clipPath id="clip0_1_17">
<rect width="28" height="27.91" fill="white" transform="matrix(1 0 0 -1 0.330017 27.91)"/>
</clipPath>
</defs>
</svg>
