<svg width="28" height="28" viewBox="0 0 28 28" fill="none" xmlns="http://www.w3.org/2000/svg">
<g clip-path="url(#clip0_1_13)">
<path d="M19.2364 3.43323e-05C24.0519 3.43323e-05 27.9583 3.9058 27.9583 8.72191C27.9583 13.538 24.0519 17.4438 19.2364 17.4438C18.114 17.4438 17.0543 17.2083 16.0698 16.8202L14.0033 18.8883V20.9325C14.0033 21.8952 13.2221 22.6769 12.2589 22.6769H10.5145V24.4213C10.5145 25.384 9.73335 26.1657 8.77013 26.1657H6.72703L5.47544 27.4183C5.16908 27.7225 4.87363 27.91 4.40592 27.91H1.78936C0.855027 27.91 0.0449829 27.0989 0.0449829 26.1657V23.5491C0.0449829 23.0808 0.234139 22.7892 0.540494 22.4823L11.1365 11.8869C10.7494 10.9035 10.5145 9.84267 10.5145 8.72191C10.5145 3.9058 14.4197 3.43323e-05 19.2364 3.43323e-05ZM19.2364 15.6994C23.0898 15.6994 26.2133 12.5743 26.2133 8.72082C26.2133 4.86793 23.0882 1.74332 19.2358 1.74332C15.3835 1.74332 12.2583 4.86793 12.2583 8.72082C12.2583 10.0117 12.6334 11.2076 13.2455 12.2445L11.9645 13.526C11.9634 13.5249 11.9634 13.5244 11.9634 13.5244L1.78936 23.6799L1.79208 26.1657L4.25656 26.1689L5.49343 24.9326C5.8205 24.6055 6.26477 24.4213 6.72703 24.4213H8.76958V22.6769C8.76958 21.7131 9.55074 20.9325 10.514 20.9325H12.2583V18.8883C12.2583 18.425 12.442 17.9818 12.7691 17.6547L14.4306 15.9927L15.4118 15.0115L15.7122 14.7122C16.749 15.3244 17.9455 15.6994 19.2364 15.6994ZM24.3092 7.18577C24.4128 7.33186 24.4679 7.50357 24.469 7.67692C24.469 7.77013 24.4532 7.86444 24.421 7.95547C23.9953 9.16782 23.1656 9.99803 21.9527 10.4216C21.6938 10.5115 21.4076 10.4706 21.1841 10.3104C19.8191 9.32917 18.6302 8.13918 17.649 6.7753C17.5443 6.62975 17.4904 6.45749 17.4904 6.28415C17.4904 6.19093 17.5062 6.09662 17.5383 6.00614C17.9624 4.79434 18.7916 3.96576 20.0034 3.53948C20.2623 3.44845 20.5501 3.48878 20.7725 3.65014C22.1408 4.63462 23.3313 5.82352 24.3092 7.18577ZM21.6927 9.60282C22.6216 9.2643 23.2512 8.63633 23.5924 7.68128C22.675 6.40625 21.5542 5.28658 20.2639 4.3577C19.3301 4.70113 18.6983 5.33237 18.3609 6.2945C19.2811 7.55318 20.4035 8.67557 21.6927 9.60282Z" fill="#4CAF50"/>
</g>
<defs>
<clipPath id="clip0_1_13">
<rect width="28" height="27.91" fill="white" transform="matrix(1 0 0 -1 0 27.91)"/>
</clipPath>
</defs>
</svg>
