<svg width="29" height="28" viewBox="0 0 29 28" fill="none" xmlns="http://www.w3.org/2000/svg">
<g clip-path="url(#clip0_1_21)">
<path d="M26.1669 4.59214C29.4316 7.8225 29.4316 13.06 26.1674 16.2925C26.0622 16.3961 16.5276 25.8354 16.5276 25.8354C15.4962 26.8575 13.8281 26.8575 12.7962 25.8354C12.7962 25.8354 4.08798 17.216 3.15583 16.2925C-0.107241 13.06 -0.107241 7.8225 3.15583 4.59214C6.32296 1.45554 11.3822 1.39012 14.6616 4.34084C17.9405 1.39012 23.0014 1.45554 26.1669 4.59214ZM24.924 15.0611C27.4959 12.5132 27.4959 8.3698 24.9229 5.82356C22.4426 3.36781 18.4551 3.28222 15.8434 5.63004L14.6616 6.69411L13.4793 5.63004C10.8687 3.28222 6.88116 3.36835 4.40033 5.82356C1.82738 8.37035 1.82738 12.5143 4.40033 15.0611L14.0407 24.6034C14.382 24.9446 14.9407 24.9446 15.2836 24.6034L24.924 15.0611ZM8.77544 6.54257C8.77381 6.54257 8.77381 6.54312 8.77163 6.54312C6.72635 6.54475 5.06865 8.203 5.06865 10.2494C5.06865 10.4898 5.2638 10.6855 5.50474 10.6855C5.74514 10.6855 5.94083 10.4898 5.94083 10.2494V10.2483C5.94083 8.68379 7.20987 7.41476 8.77435 7.41476H8.77544C9.01584 7.41476 9.21154 7.21906 9.21154 6.97866C9.21154 6.73772 9.01693 6.54257 8.77544 6.54257Z" fill="#4CAF50"/>
</g>
<defs>
<clipPath id="clip0_1_21">
<rect width="28" height="27.91" fill="white" transform="matrix(1 0 0 -1 0.659973 27.91)"/>
</clipPath>
</defs>
</svg>
